<svg xmlns="http://www.w3.org/2000/svg" width="74" height="60" viewBox="0 0 74 60">
  <metadata><?xpacket begin="﻿" id="W5M0MpCehiHzreSzNTczkc9d"?>
<x:xmpmeta xmlns:x="adobe:ns:meta/" x:xmptk="Adobe XMP Core 5.6-c140 79.160451, 2017/05/06-01:08:21        ">
   <rdf:RDF xmlns:rdf="http://www.w3.org/1999/02/22-rdf-syntax-ns#">
      <rdf:Description rdf:about=""/>
   </rdf:RDF>
</x:xmpmeta>
                                                                                                    
                                                                                                    
                                                                                                    
                                                                                                    
                                                                                                    
                                                                                                    
                                                                                                    
                                                                                                    
                                                                                                    
                                                                                                    
                                                                                                    
                                                                                                    
                                                                                                    
                                                                                                    
                                                                                                    
                                                                                                    
                                                                                                    
                                                                                                    
                                                                                                    
                                                                                                    
                           
<?xpacket end="w"?></metadata>
<defs>
    <style>
      .cls-1 {
        fill: #fff;
        fill-rule: evenodd;
      }
    </style>
  </defs>
  <path id="Иконка" class="cls-1" d="M65.192,8.8A30.1,30.1,0,0,0,26.82,5.336a1.443,1.443,0,1,0,1.647,2.37A27.112,27.112,0,0,1,37.4,3.68a18.659,18.659,0,0,0-1.635,2.4,40.665,40.665,0,0,0-4.45,14.144,1.446,1.446,0,0,0,2.861.421c0.176-1.189.387-2.349,0.63-3.468H53.059a60.406,60.406,0,0,1,1.277,11.391H50.287a1.442,1.442,0,1,0,0,2.884h4.049a60.406,60.406,0,0,1-1.277,11.391H45.9a1.442,1.442,0,1,0,0,2.884h6.436a35.914,35.914,0,0,1-1.355,3.919c-1.832,4.406-4.179,7.067-6.514,7.428-0.358.008-.717,0.009-1.076,0-4.08-.612-7.947-8.183-9.33-18.455A1.446,1.446,0,0,0,31.2,39a41.984,41.984,0,0,0,4.419,14.684A19.1,19.1,0,0,0,37.363,56.3,26.813,26.813,0,0,1,27.7,51.764a1.443,1.443,0,1,0-1.729,2.312A30.092,30.092,0,0,0,43.925,60h0q1.028,0,2.06-.07a30.09,30.09,0,0,0,19.2-8.714A29.934,29.934,0,0,0,65.192,8.8ZM71.07,28.567H57.228a63.94,63.94,0,0,0-1.217-11.391H67.883A26.847,26.847,0,0,1,71.07,28.567ZM35.521,14.293a30.224,30.224,0,0,1,2.743-6.771C39.99,4.542,42,2.9,43.926,2.9c2.511,0,5.083,2.724,7.058,7.472a35.917,35.917,0,0,1,1.355,3.919H35.521ZM53.656,9.269a22.686,22.686,0,0,0-3.2-5.584,27.169,27.169,0,0,1,12.689,7.156,27.465,27.465,0,0,1,2.933,3.451H55.337A39.662,39.662,0,0,0,53.656,9.269Zm9.491,39.907a27.027,27.027,0,0,1-12.641,7.1,22.8,22.8,0,0,0,3.15-5.526,39.672,39.672,0,0,0,1.681-5.023H66.08A27.4,27.4,0,0,1,63.147,49.176Zm-7.136-6.335a63.939,63.939,0,0,0,1.217-11.391H71.07a26.846,26.846,0,0,1-3.187,11.391H56.011Zm-15.158.422a1.446,1.446,0,0,0-2.468,1.019,1.444,1.444,0,0,0,.424,1.019A1.444,1.444,0,1,0,40.853,43.264Zm4.221-14.139a12.155,12.155,0,0,0-9.583-4.718H30.242L24.944,11.7a1.446,1.446,0,0,0-1.335-.888H18.15A1.444,1.444,0,0,0,16.7,12.253V24.407H11.428L7.734,19.993a1.447,1.447,0,0,0-1.11-.518h-5.2A1.442,1.442,0,0,0,.162,21.631L4.942,30l-4.78,8.37a1.442,1.442,0,0,0,1.256,2.155H6.624a1.447,1.447,0,0,0,1.11-.518L11.428,35.6H16.7V47.765a1.444,1.444,0,0,0,1.446,1.442h5.46a1.446,1.446,0,0,0,1.335-.889l5.3-12.722h5.249a12.155,12.155,0,0,0,9.583-4.717A1.438,1.438,0,0,0,45.074,29.124ZM19.6,13.694h3.049l4.466,10.712H19.6V13.694h0Zm3.049,32.629H19.6V35.587h7.52ZM35.492,32.712H10.976a1.448,1.448,0,0,0-1.321.5L5.947,37.643H3.906l3.956-6.928a1.438,1.438,0,0,0,0-1.427L3.906,22.359H5.947l3.707,4.429a1.45,1.45,0,0,0,1.322.5H35.492A9.257,9.257,0,0,1,42.01,30,9.258,9.258,0,0,1,35.492,32.712ZM2.658,11.233a1.438,1.438,0,1,0,.424,1.019A1.459,1.459,0,0,0,2.658,11.233Zm10.4-.422H6.913a1.442,1.442,0,1,0,0,2.884h6.145A1.442,1.442,0,1,0,13.058,10.811ZM11.644,46.323H2.72a1.442,1.442,0,1,0,0,2.884h8.923A1.442,1.442,0,1,0,11.644,46.323Z"/>
</svg>
