<svg xmlns="http://www.w3.org/2000/svg" width="38" height="38" viewBox="0 0 38 38">
  <metadata><?xpacket begin="﻿" id="W5M0MpCehiHzreSzNTczkc9d"?>
<x:xmpmeta xmlns:x="adobe:ns:meta/" x:xmptk="Adobe XMP Core 5.6-c140 79.160451, 2017/05/06-01:08:21        ">
   <rdf:RDF xmlns:rdf="http://www.w3.org/1999/02/22-rdf-syntax-ns#">
      <rdf:Description rdf:about=""/>
   </rdf:RDF>
</x:xmpmeta>
                                                                                                    
                                                                                                    
                                                                                                    
                                                                                                    
                                                                                                    
                                                                                                    
                                                                                                    
                                                                                                    
                                                                                                    
                                                                                                    
                                                                                                    
                                                                                                    
                                                                                                    
                                                                                                    
                                                                                                    
                                                                                                    
                                                                                                    
                                                                                                    
                                                                                                    
                                                                                                    
                           
<?xpacket end="w"?></metadata>
<defs>
    <style>
      .cls-1 {
        fill: #c7c6c6;
        fill-rule: evenodd;
      }
    </style>
  </defs>
  <path id="Иконка" class="cls-1" d="M37.367,36.733h-13.3v-15.2a0.633,0.633,0,1,0-1.267,0v15.2H20.9v-5.7a0.633,0.633,0,1,0-1.267,0v5.7H18.367v-5.7a0.633,0.633,0,1,0-1.267,0v5.7H15.2v-7.6h6.333a0.633,0.633,0,0,0,0-1.267H20.9v-5.7a0.633,0.633,0,1,0-1.267,0v5.7H18.367v-5.7a0.633,0.633,0,1,0-1.267,0v5.7H15.2v-7.6h9.5a0.633,0.633,0,0,0,.633-0.633V6.966a0.633,0.633,0,1,0-1.267,0V19H13.933V8.866H22.8a0.633,0.633,0,0,0,0-1.267H22.558L21.467,5.417a0.634,0.634,0,0,0-.567-0.35H19.633V0.633a0.633,0.633,0,1,0-1.266,0V5.066H17.1a0.634,0.634,0,0,0-.567.35L15.442,7.6H13.933V6.966a0.633,0.633,0,1,0-1.267,0V19.633a0.633,0.633,0,0,0,.633.633h0.633V36.733H0.633A0.633,0.633,0,0,0,.633,38H37.367A0.633,0.633,0,0,0,37.367,36.733ZM17.491,6.333h3.017L21.142,7.6H16.858Zm0.875,6.333v1.267a0.632,0.632,0,0,0,.185.448l0.633,0.633a0.633,0.633,0,0,0,.9-0.9l-0.448-.448v-1A0.633,0.633,0,0,0,18.367,12.666ZM15.2,13.933a3.8,3.8,0,1,0,3.8-3.8A3.8,3.8,0,0,0,15.2,13.933Zm6.333,0A2.533,2.533,0,1,1,19,11.4,2.536,2.536,0,0,1,21.533,13.933Z"/>
</svg>
