<svg xmlns="http://www.w3.org/2000/svg" width="18" height="18" viewBox="0 0 18 18">
  <metadata><?xpacket begin="﻿" id="W5M0MpCehiHzreSzNTczkc9d"?>
<x:xmpmeta xmlns:x="adobe:ns:meta/" x:xmptk="Adobe XMP Core 5.6-c140 79.160451, 2017/05/06-01:08:21        ">
   <rdf:RDF xmlns:rdf="http://www.w3.org/1999/02/22-rdf-syntax-ns#">
      <rdf:Description rdf:about=""/>
   </rdf:RDF>
</x:xmpmeta>
                                                                                                    
                                                                                                    
                                                                                                    
                                                                                                    
                                                                                                    
                                                                                                    
                                                                                                    
                                                                                                    
                                                                                                    
                                                                                                    
                                                                                                    
                                                                                                    
                                                                                                    
                                                                                                    
                                                                                                    
                                                                                                    
                                                                                                    
                                                                                                    
                                                                                                    
                                                                                                    
                           
<?xpacket end="w"?></metadata>
<defs>
    <style>
      .cls-1 {
        fill: #404040;
        fill-rule: evenodd;
      }
    </style>
  </defs>
  <path id="Иконка" class="cls-1" d="M0.45,9.978A0.4,0.4,0,0,0,.8,9.548,4.956,4.956,0,0,1,.783,9,0.391,0.391,0,1,0,0,9c0,0.2,0,.411.02,0.626a0.4,0.4,0,0,0,.391.352H0.45ZM9,0A9.007,9.007,0,0,0,2.348,2.954V0.391a0.391,0.391,0,0,0-.783,0V4.3a0.392,0.392,0,0,0,.391.391H5.87a0.391,0.391,0,1,0,0-.782H2.563A8.2,8.2,0,1,1,1.1,11.25a0.392,0.392,0,0,0-.489-0.274,0.391,0.391,0,0,0-.274.489A9,9,0,1,0,9,0ZM9,4.5a0.393,0.393,0,0,0-.391.391V8.609a0.386,0.386,0,0,0,.117.274l4.285,4.285a0.378,0.378,0,0,0,.548,0,0.378,0.378,0,0,0,0-.548L9.391,8.452V4.891A0.393,0.393,0,0,0,9,4.5Z"/>
</svg>
