<svg xmlns="http://www.w3.org/2000/svg" width="30" height="23" viewBox="0 0 30 23">
  <metadata><?xpacket begin="﻿" id="W5M0MpCehiHzreSzNTczkc9d"?>
<x:xmpmeta xmlns:x="adobe:ns:meta/" x:xmptk="Adobe XMP Core 5.6-c140 79.160451, 2017/05/06-01:08:21        ">
   <rdf:RDF xmlns:rdf="http://www.w3.org/1999/02/22-rdf-syntax-ns#">
      <rdf:Description rdf:about=""/>
   </rdf:RDF>
</x:xmpmeta>
                                                                                                    
                                                                                                    
                                                                                                    
                                                                                                    
                                                                                                    
                                                                                                    
                                                                                                    
                                                                                                    
                                                                                                    
                                                                                                    
                                                                                                    
                                                                                                    
                                                                                                    
                                                                                                    
                                                                                                    
                                                                                                    
                                                                                                    
                                                                                                    
                                                                                                    
                                                                                                    
                           
<?xpacket end="w"?></metadata>
<defs>
    <style>
      .cls-1 {
        fill: #fff;
        fill-rule: evenodd;
      }
    </style>
  </defs>
  <path id="Иконка" class="cls-1" d="M7.5,5.447H3.75a0.615,0.615,0,0,0-.625.605V7.868h1.25V6.657h2.5V7.868H5.625V9.078H7.5a0.615,0.615,0,0,0,.625-0.605V6.052A0.615,0.615,0,0,0,7.5,5.447ZM19.375,6.052A6.769,6.769,0,0,0,12.5,12.71a6.769,6.769,0,0,0,6.875,6.658A6.777,6.777,0,0,0,26.25,12.71,6.769,6.769,0,0,0,19.375,6.052Zm0,12.106A5.538,5.538,0,0,1,13.75,12.71a5.628,5.628,0,0,1,11.25,0A5.538,5.538,0,0,1,19.375,18.158Zm0-9.685A4.308,4.308,0,0,0,15,12.71a4.377,4.377,0,0,0,8.75,0A4.308,4.308,0,0,0,19.375,8.473Zm0,7.263A3.028,3.028,0,1,1,22.5,12.71,3.077,3.077,0,0,1,19.375,15.736Zm-15-5.447h1.25V11.5H4.375v-1.21Zm2.5,0h1.25V11.5H6.875v-1.21Zm-2.5,2.421h3.75v1.211H4.375V12.71Zm-3.75,6.053h8.75v1.211H0.625V18.763Zm25.625,0h3.125v1.211H26.25V18.763ZM8.75,0.6H5a0.615,0.615,0,0,0-.625.605V3.026h1.25V1.815h2.5v1.21h1.25V1.21A0.615,0.615,0,0,0,8.75.6ZM26.875,2.42H26.011L24.938,0.334A0.628,0.628,0,0,0,24.375,0h-7.5a0.628,0.628,0,0,0-.559.335L15.239,2.42H3.125A3.081,3.081,0,0,0,0,5.447V19.973A3.08,3.08,0,0,0,3.125,23h23.75A3.08,3.08,0,0,0,30,19.973V5.447A3.081,3.081,0,0,0,26.875,2.42ZM28.75,19.973a1.846,1.846,0,0,1-1.875,1.816H3.125A1.846,1.846,0,0,1,1.25,19.973V5.447A1.846,1.846,0,0,1,3.125,3.631h12.5A0.628,0.628,0,0,0,16.188,3.3L17.261,1.21h6.728L25.062,3.3a0.628,0.628,0,0,0,.563.335h1.25A1.846,1.846,0,0,1,28.75,5.447V19.973h0ZM18.125,2.42h5V3.631h-5V2.42Z"/>
</svg>
