<svg xmlns="http://www.w3.org/2000/svg" width="33" height="33" viewBox="0 0 33 33">
  <metadata><?xpacket begin="﻿" id="W5M0MpCehiHzreSzNTczkc9d"?>
<x:xmpmeta xmlns:x="adobe:ns:meta/" x:xmptk="Adobe XMP Core 5.6-c140 79.160451, 2017/05/06-01:08:21        ">
   <rdf:RDF xmlns:rdf="http://www.w3.org/1999/02/22-rdf-syntax-ns#">
      <rdf:Description rdf:about=""/>
   </rdf:RDF>
</x:xmpmeta>
                                                                                                    
                                                                                                    
                                                                                                    
                                                                                                    
                                                                                                    
                                                                                                    
                                                                                                    
                                                                                                    
                                                                                                    
                                                                                                    
                                                                                                    
                                                                                                    
                                                                                                    
                                                                                                    
                                                                                                    
                                                                                                    
                                                                                                    
                                                                                                    
                                                                                                    
                                                                                                    
                           
<?xpacket end="w"?></metadata>
<defs>
    <style>
      .cls-1 {
        fill: #c7c6c6;
        fill-rule: evenodd;
      }
    </style>
  </defs>
  <path id="Иконка" class="cls-1" d="M30.825,8.271A0.6,0.6,0,0,0,30,8.054l-2.94,1.691a0.6,0.6,0,0,0-.218.819,0.6,0.6,0,0,0,.823.217l2.94-1.691A0.6,0.6,0,0,0,30.825,8.271ZM30.608,23.913l-2.94-1.69a0.6,0.6,0,0,0-.823.217,0.6,0.6,0,0,0,.218.819L30,24.949a0.6,0.6,0,0,0,.823-0.217A0.6,0.6,0,0,0,30.608,23.913Zm-14.061,4.42a0.6,0.6,0,0,0-.648.645v3.377a0.605,0.605,0,1,0,1.207,0V28.978A0.6,0.6,0,0,0,16.546,28.333ZM5.938,9.745L3,8.054a0.6,0.6,0,0,0-.823.217,0.6,0.6,0,0,0,.218.819l2.94,1.691a0.6,0.6,0,0,0,.823-0.217A0.6,0.6,0,0,0,5.938,9.745ZM16.546,0A0.6,0.6,0,0,0,15.9.644V4.021a0.6,0.6,0,0,0,1.207,0V0.644A0.6,0.6,0,0,0,16.546,0Zm-5.8,5.392L9.05,2.467A0.6,0.6,0,0,0,8.227,2.25a0.6,0.6,0,0,0-.218.819l1.7,2.924a0.6,0.6,0,0,0,.823.217A0.6,0.6,0,0,0,10.747,5.391Zm5.843,5.766a0.638,0.638,0,0,0-.09,0A5.357,5.357,0,0,0,11.129,16.5a0.6,0.6,0,0,0,1.207,0,4.15,4.15,0,0,1,4.157-4.142H16.5A0.6,0.6,0,1,0,16.59,11.157ZM33,16.454A0.6,0.6,0,0,0,32.44,15.9h-3.4a0.6,0.6,0,1,0-.09,1.2,0.707,0.707,0,0,0,.09,0h3.4A0.6,0.6,0,0,0,33,16.454ZM4.045,15.9a0.639,0.639,0,0,0-.09,0H0.56a0.6,0.6,0,0,0,0,1.2h3.4A0.6,0.6,0,1,0,4.045,15.9ZM16.5,7.664A8.836,8.836,0,1,0,25.384,16.5,8.859,8.859,0,0,0,16.5,7.664Zm5.425,14.245a7.7,7.7,0,0,1-10.855,0,7.619,7.619,0,0,1,0-10.808v0.01a7.7,7.7,0,0,1,10.855,0A7.607,7.607,0,0,1,21.927,21.909Zm3.065,8.025,0,0-1.7-2.924a0.6,0.6,0,0,0-.823-0.217,0.6,0.6,0,0,0-.218.819l1.7,2.924a0.6,0.6,0,0,0,.821.218A0.6,0.6,0,0,0,24.992,29.934ZM24.793,2.25a0.6,0.6,0,0,0-.823.217l-1.7,2.924a0.6,0.6,0,0,0,.215.819h0A0.6,0.6,0,0,0,23.309,6l0,0,1.7-2.924A0.6,0.6,0,0,0,24.793,2.25ZM10.532,26.79a0.6,0.6,0,0,0-.823.217l-1.7,2.924a0.6,0.6,0,0,0,.218.819,0.6,0.6,0,0,0,.823-0.217l1.7-2.924A0.6,0.6,0,0,0,10.532,26.79ZM6.155,22.436a0.6,0.6,0,0,0-.823-0.217l-2.94,1.69a0.6,0.6,0,0,0-.218.819A0.6,0.6,0,0,0,3,24.946l2.94-1.69A0.6,0.6,0,0,0,6.155,22.436Z"/>
</svg>
